<svg id="barclays-logo" data-name="barclays-logo" xmlns="http://www.w3.org/2000/svg" viewBox="0 0 32 32">
  <defs>
    <style>
      .cls-1 {
        fill: #00aeef;
      }
    </style>
  </defs>
  <title>Logo</title>
  <path class="cls-1" d="M30.28,11a11.72,11.72,0,0,0-1.08-4.06,6.19,6.19,0,0,0-1.59-2.1,4.41,4.41,0,0,0-1.43-.74,4.31,4.31,0,0,0-1.35-.19,3.12,3.12,0,0,0-2.37,1A1.56,1.56,0,0,0,23,7.35h0c-.15.29-.63.86-2.13.84A2.47,2.47,0,0,1,18.76,7a6.08,6.08,0,0,1-.67-3.17,6.86,6.86,0,0,0-.31-2,1.86,1.86,0,0,0-.66-1A2.89,2.89,0,0,0,16.2.41,5.53,5.53,0,0,0,14.62.19c-.76,0-1,.09-1.29.44A5,5,0,0,0,12,.73a3.17,3.17,0,0,0-1.31.59,1.71,1.71,0,0,0-.6.86,1.08,1.08,0,0,0,0,.21,1.45,1.45,0,0,0,0,.26,1.19,1.19,0,0,0,.06.2.74.74,0,0,0,.08.16c.6-.65,2.38-.32,2.88.4a2.55,2.55,0,0,1,.3,2A2.83,2.83,0,0,1,11,8.14c-.78.11-2.1.12-2.67-.79h0a1.56,1.56,0,0,0,.56-2.49,3.6,3.6,0,0,0-3.72-.8,5.06,5.06,0,0,0-3,2.85A11.94,11.94,0,0,0,1.08,11a20.52,20.52,0,0,0,0,3.87A14.58,14.58,0,0,0,2,19.09,20.51,20.51,0,0,0,3.7,22.55c.43.7.53.86.62.86s.07,0,.54-.52A18.73,18.73,0,0,0,6,21.42a10.12,10.12,0,0,0,.78-1.29.76.76,0,0,1,.25.61,4.65,4.65,0,0,1-.23,1.15A10.62,10.62,0,0,1,6,24c-.34.62-.64,1-.32,1.28s.83-.21,1.06-.38a10.35,10.35,0,0,0,2-2.22,19.7,19.7,0,0,0,1.83-3.14.32.32,0,0,1,.14.13,1,1,0,0,1,.08.61A10.62,10.62,0,0,1,10,22.72a18.87,18.87,0,0,1-2.31,3.7c-.11.14-.3.33-.3.44s.2.23.78.71a20.91,20.91,0,0,0,3.27,2.22,22.2,22.2,0,0,0,4.26,1.88,22.22,22.22,0,0,0,4.26-1.88,20.86,20.86,0,0,0,3.27-2.22c.58-.48.78-.62.78-.71s-.19-.3-.3-.44a18.89,18.89,0,0,1-2.31-3.7,10.63,10.63,0,0,1-.81-2.47,1,1,0,0,1,.08-.61.32.32,0,0,1,.14-.13,19.71,19.71,0,0,0,1.83,3.14,10.33,10.33,0,0,0,2,2.22c.23.17.81.58,1.06.38s0-.66-.32-1.28a11,11,0,0,1-.87-2.08,4.68,4.68,0,0,1-.23-1.15.76.76,0,0,1,.25-.61,10.12,10.12,0,0,0,.78,1.29,18.74,18.74,0,0,0,1.17,1.47c.47.47.48.52.54.52s.2-.17.62-.86a20.56,20.56,0,0,0,1.66-3.46,14.56,14.56,0,0,0,.94-4.24A20.41,20.41,0,0,0,30.28,11Z"/>
</svg>
